<svg id="Camada_1" data-name="Camada 1" xmlns="http://www.w3.org/2000/svg" viewBox="0 0 1000 1000"><defs><style>.cls-1{font-size:140px;font-family:ReportRg-Bold, Report;font-weight:700;}.cls-1,.cls-3{fill:#fb0;}.cls-2{letter-spacing:-0.03em;}.cls-4{fill:none;}.cls-5{fill:#1b0066;}</style></defs><title>Yellowish - Logo_v3</title><text class="cls-1" transform="translate(240.65 614.93)"><tspan class="cls-2">y</tspan><tspan x="63.42" y="0">ell</tspan><tspan class="cls-2" x="195.02" y="0">o</tspan><tspan x="267.12" y="0">wish</tspan></text><circle class="cls-3" cx="500" cy="425.16" r="75"/><path class="cls-4" d="M522.21,390.07l.07.07,6.37,6.37,6.37,6.36.2.21C548.88,385.5,539.79,376.41,522.21,390.07Z"/><path class="cls-5" d="M541.38,409.24l-5.15-5.15q-1.9,2.34-4.27,4.85a2,2,0,0,1-.43,2.06,1.92,1.92,0,0,1-2.72-2.72,1.91,1.91,0,0,1,2.23-.35c1.57-1.68,3-3.3,4.18-4.85l-.2-.21-6.37-6.36-6.37-6.37-.07-.07q-2.36,1.83-4.9,4.22a1.94,1.94,0,1,1-.92-1q2.49-2.35,4.81-4.23l-5.28-5.29-6.37-6.36L452.25,422l6.37,6.37,6.36,6.37,6.37,6.36,6.37,6.37,6.36,6.37,6.37,6.36,6.37,6.37,6.36,6.37,44.57-57.3Zm-31.51,25.89H490V415.28a9.43,9.43,0,0,1,9.44-9.43h0a9.43,9.43,0,0,1,9.43,9.43v1h1a9.44,9.44,0,0,1,0,18.88Z"/><path class="cls-3" d="M514.16,393.63a1.92,1.92,0,1,0,3.15.66q2.55-2.39,4.9-4.22c17.58-13.66,26.67-4.57,13,13-1.21,1.55-2.61,3.17-4.18,4.85a1.92,1.92,0,0,0-2.23,3.07,1.93,1.93,0,0,0,2.72,0,2,2,0,0,0,.43-2.06q2.37-2.51,4.27-4.85c17-21,6-32-15-15q-2.33,1.88-4.81,4.23A1.9,1.9,0,0,0,514.16,393.63Zm17.15,15.75c-.59.6-1.18,1-1.28.9l-.16-.15c-.11-.11.27-.67.81-1.22,23.21-24,9.74-37.44-14.22-14.23-.56.54-1.11.92-1.22.81l-.16-.16c-.11-.1.3-.69.9-1.28C541.8,369.05,556.31,383.56,531.31,409.38Z"/><path class="cls-3" d="M509.87,416.25h-1v-1a9.43,9.43,0,0,0-9.43-9.43h0a9.43,9.43,0,0,0-9.44,9.43v19.85h19.84a9.44,9.44,0,0,0,0-18.88Z"/><path class="cls-5" d="M515.08,395.33l.16.16c.11.11.66-.27,1.22-.81,24-23.21,37.43-9.74,14.22,14.23-.54.55-.92,1.11-.81,1.22l.16.15c.1.12.69-.3,1.28-.9,25-25.82,10.49-40.33-15.33-15.33C515.38,394.64,515,395.23,515.08,395.33Z"/></svg>